<svg width="50" height="50" viewBox="0 0 50 50" fill="none" xmlns="http://www.w3.org/2000/svg">
<path d="M25 46.875C37.0812 46.875 46.875 37.0812 46.875 25C46.875 12.9188 37.0812 3.125 25 3.125C12.9188 3.125 3.125 12.9188 3.125 25C3.125 37.0812 12.9188 46.875 25 46.875Z" stroke="#012E40" stroke-width="2" stroke-miterlimit="10" stroke-linecap="round" stroke-linejoin="round"/>
<path d="M25 28.125C29.3147 28.125 32.8125 24.6272 32.8125 20.3125C32.8125 15.9978 29.3147 12.5 25 12.5C20.6853 12.5 17.1875 15.9978 17.1875 20.3125C17.1875 24.6272 20.6853 28.125 25 28.125Z" stroke="#012E40" stroke-width="2" stroke-miterlimit="10" stroke-linecap="round" stroke-linejoin="round"/>
<path d="M8.4375 39.2188C11.25 32.8125 17.5 28.2812 25 28.2812C32.5 28.2812 38.9063 32.8125 41.5625 39.2188" stroke="#012E40" stroke-width="2" stroke-miterlimit="10" stroke-linecap="round" stroke-linejoin="round"/>
</svg>
